<?xml version="1.0" standalone="no"?>
<!DOCTYPE svg PUBLIC "-//W3C//DTD SVG 20010904//EN"
 "http://www.w3.org/TR/2001/REC-SVG-20010904/DTD/svg10.dtd">
<svg version="1.0" xmlns="http://www.w3.org/2000/svg"
 width="512.000000pt" height="512.000000pt" viewBox="0 0 512.000000 512.000000"
 preserveAspectRatio="xMidYMid meet">
<metadata>
Created by potrace 1.11, written by Peter Selinger 2001-2013
</metadata>
<g transform="translate(0.000000,512.000000) scale(0.100000,-0.100000)"
fill="#000000" stroke="none">
<path d="M2305 4469 c-162 -12 -411 -44 -575 -75 -915 -172 -1492 -558 -1668
-1114 -44 -140 -57 -228 -56 -390 1 -356 132 -690 338 -863 34 -28 60 -58 59
-66 -29 -225 -24 -335 24 -486 49 -154 116 -267 227 -384 165 -171 335 -251
711 -335 350 -78 692 -110 1195 -110 581 0 947 41 1360 151 244 64 371 129
507 257 176 166 277 367 304 606 11 90 2 255 -16 302 -3 8 15 28 45 51 152
114 278 348 332 619 29 145 31 369 5 500 -94 474 -427 827 -1002 1061 -504
205 -1223 316 -1790 276z m425 -1069 c308 -48 585 -245 709 -503 62 -128 76
-192 75 -342 0 -120 -3 -138 -33 -225 -37 -108 -88 -200 -158 -281 -97 -114
-74 -106 -364 -120 -246 -11 -757 -8 -967 7 l-93 7 -60 61 c-315 317 -317 786
-5 1114 125 132 334 242 524 276 92 17 282 20 372 6z"/>
<path d="M2183 3180 c-39 -23 -30 5 -164 -532 l-103 -417 17 -36 c33 -70 128
-80 176 -20 11 15 47 138 91 317 40 161 76 298 79 305 4 7 50 -60 105 -151
101 -168 118 -186 176 -186 58 0 75 18 176 186 55 91 101 158 105 151 3 -7 39
-144 79 -305 78 -314 90 -344 149 -357 45 -10 98 18 118 60 l17 36 -103 417
c-134 537 -125 509 -164 532 -18 11 -42 20 -55 20 -56 0 -79 -26 -198 -225
-64 -107 -120 -195 -124 -195 -4 0 -60 88 -124 195 -119 199 -142 225 -198
225 -13 0 -37 -9 -55 -20z"/>
</g>
</svg>
